#!OML:ASF I:\Actors\actors\Patient Classification 1\Patient 1\Session 1\Subject1.ASF
:FULLY-SPECIFIED
:DEGREES
502
root 0.802051 17.4613 9.5457 9.39891 1.17339 -8.77321
lowerback -4.54523 1.33495 6.07308
upperback -8.28392 1.88013 2.63479
thorax -6.01234 0.67109 -0.650197
lowerneck -10.5597 -4.10551 -2.69096
upperneck 28.7129 -7.18661 6.26418
head 11.3934 -2.81422 1.83083
rclavicle 1.65364e-014 -1.17283e-014
rhumerus -40.4638 13.962 -87.6743
rradius 114.128
rwrist -13.0179
rhand -0.29345 -53.7709
rfingers 7.12502
rthumb 25.3093 -82.1117
lclavicle 1.65364e-014 -1.17283e-014
lhumerus -45.1173 -2.51123 93.3396
lradius 111.386
lwrist 48.9529
lhand -32.5176 4.90076
lfingers 7.12502
lthumb -5.74844 34.8028
rfemur -2.68844 25.4639 25.3505
rtibia 2.03556
rfoot -13.7031 -27.0134
rtoes 1.40103
lfemur 6.8607 -46.6247 -13.7589
ltibia -5.19998
lfoot -20.9831 51.7347
ltoes 7.00996
503
root 0.79947 17.4631 9.54625 9.34856 1.04213 -8.79162
lowerback -4.50732 1.37357 6.04002
upperback -8.26766 1.93436 2.64226
thorax -6.01412 0.700443 -0.625115
lowerneck -10.5728 -4.13199 -2.76735
upperneck 28.8072 -7.24016 6.34589
head 11.4425 -2.83459 1.86761
rclavicle -3.05631e-015 -1.48095e-014
rhumerus -40.8664 13.6136 -87.9904
rradius 114.29
rwrist -13.0152
rhand -0.289666 -53.552
rfingers 7.12502
rthumb 25.3129 -81.8923
lclavicle -3.05631e-015 -1.48095e-014
lhumerus -45.122 -2.65117 93.4122
lradius 111.351
lwrist 48.8207
lhand -32.2923 4.71502
lfingers 7.12502
lthumb -5.53099 34.6228
rfemur -2.62312 25.5627 25.405
rtibia 2.05207
rfoot -13.7158 -26.9695
rtoes 1.56461
lfemur 7.1318 -46.8698 -13.9626
ltibia -5.21426
lfoot -21.5617 51.9942
ltoes 7.56847
504
root 0.799825 17.4638 9.54654 9.31163 1.04396 -8.79588
lowerback -4.50231 1.35278 6.04785
upperback -8.24968 1.90636 2.65494
thorax -5.99937 0.687019 -0.616192
lowerneck -10.5917 -4.13099 -2.78684
upperneck 28.8479 -7.24413 6.36624
head 11.4642 -2.83484 1.87798
rclavicle -3.27001e-014 -2.48481e-016
rhumerus -40.6925 13.9418 -88.1644
rradius 114.22
rwrist -13.0537
rhand -0.434007 -53.7976
rfingers 7.12502
rthumb 25.1746 -82.1574
lclavicle -3.27001e-014 -2.48481e-016
lhumerus -45.143 -2.73115 93.4523
lradius 111.324
lwrist 48.6627
lhand -32.026 4.59855
lfingers 7.12502
lthumb -5.27386 34.5129
rfemur -2.55744 25.5817 25.4394
rtibia 2.0378
rfoot -13.753 -26.9948
rtoes 1.6589
lfemur 7.16622 -46.799 -13.9781
ltibia -5.21298
lfoot -21.5352 51.9243
ltoes 7.5993
505
root 0.800575 17.464 9.54651 9.31754 1.02965 -8.79134
lowerback -4.53106 1.34603 6.06794
upperback -8.24604 1.89424 2.65277
thorax -5.97932 0.6802 -0.628874
lowerneck -10.5941 -4.12631 -2.75633
upperneck 28.8237 -7.24127 6.36137
head 11.4537 -2.83144 1.87098
rclavicle -9.93923e-016 1.97791e-014
rhumerus -40.876 13.9682 -88.3856
rradius 114.277
rwrist -12.7906
rhand -0.321016 -53.5961
rfingers 7.12502
rthumb 25.2829 -81.9407
lclavicle -9.93923e-016 1.97791e-014
lhumerus -45.1615 -2.79663 93.4635
lradius 111.316
lwrist 48.5269
lhand -31.7959 4.64005
lfingers 7.12502
lthumb -5.05169 34.5598
rfemur -2.56936 25.5454 25.4274
rtibia 2.03743
rfoot -13.7023 -26.9693
rtoes 1.48045
lfemur 7.13495 -46.7235 -13.9593
ltibia -5.21339
lfoot -21.334 51.9058
ltoes 7.46455
506
root 0.800998 17.4644 9.5462 9.32049 1.00129 -8.787
lowerback -4.54215 1.35996 6.1016
upperback -8.24181 1.91055 2.6359
thorax -5.9664 0.686065 -0.664911
lowerneck -10.6097 -4.11062 -2.63497
upperneck 28.7921 -7.22566 6.30231
head 11.4364 -2.81861 1.82981
rclavicle -2.2239e-015 1.69961e-014
rhumerus -41.0393 13.9299 -88.5582
rradius 114.331
rwrist -12.5841
rhand -0.162826 -53.1953
rfingers 7.12502
rthumb 25.4344 -81.5184
lclavicle -2.2239e-015 1.69961e-014
lhumerus -45.1551 -2.89528 93.4806
lradius 111.315
lwrist 48.3803
lhand -31.7969 4.69437
lfingers 7.12502
lthumb -5.05259 34.6141
rfemur -2.58696 25.533 25.4111
rtibia 2.03603
rfoot -13.6427 -26.9432
rtoes 1.33103
lfemur 7.08921 -46.5686 -13.9088
ltibia -5.2335
lfoot -21.1859 51.7893
ltoes 7.32734
507
root 0.801284 17.465 9.54607 9.29387 0.964647 -8.79558
lowerback -4.5174 1.37418 6.1486
upperback -8.22819 1.92975 2.61928
thorax -5.96331 0.692435 -0.708848
lowerneck -10.5564 -4.06179 -2.41544
upperneck 28.7016 -7.16817 6.20569
head 11.3745 -2.78364 1.76448
rclavicle 1.83255e-014 -5.06901e-014
rhumerus -40.9274 14.0808 -88.6164
rradius 114.317
rwrist -12.5884
rhand -0.0507247 -53.0857
rfingers 7.12502
rthumb 25.5418 -81.3934
lclavicle 1.83255e-014 -5.06901e-014
lhumerus -45.1647 -2.97679 93.4744
lradius 111.347
lwrist 48.2936
lhand -31.872 4.70012
lfingers 7.12502
lthumb -5.12516 34.6181
rfemur -2.56516 25.5444 25.4259
rtibia 2.03399
rfoot -13.624 -26.9276
rtoes 1.24865
lfemur 7.11604 -46.4593 -13.899
ltibia -5.2564
lfoot -21.2639 51.6889
ltoes 7.45848
508
root 0.80174 17.4653 9.54656 9.27896 0.913555 -8.8149
lowerback -4.51473 1.36587 6.17131
upperback -8.22176 1.91879 2.63446
thorax -5.95872 0.68626 -0.705547
lowerneck -10.5548 -4.07785 -2.50564
upperneck 28.6775 -7.2023 6.3133
head 11.375 -2.79688 1.81472
rclavicle 1.63003e-014 -2.08724e-015
rhumerus -40.7991 14.3195 -88.6186
rradius 114.317
rwrist -12.7121
rhand -0.00221362 -53.0786
rfingers 7.12502
rthumb 25.5883 -81.3797
lclavicle 1.63003e-014 -2.08724e-015
lhumerus -45.206 -2.94069 93.4237
lradius 111.4
lwrist 48.3237
lhand -31.8915 4.73143
lfingers 7.12502
lthumb -5.14397 34.649
rfemur -2.55042 25.5647 25.4518
rtibia 2.03944
rfoot -13.6067 -26.9074
rtoes 1.16039
lfemur 7.19896 -46.5471 -13.9586
ltibia -5.23849
lfoot -21.5798 51.7697
ltoes 7.80418
509
root 0.802623 17.4653 9.54702 9.28511 0.867118 -8.82388
lowerback -4.53559 1.34706 6.17568
upperback -8.22452 1.89269 2.65688
thorax -5.95208 0.673814 -0.684008
lowerneck -10.5064 -4.05589 -2.48658
upperneck 28.6069 -7.17416 6.32743
head 11.3362 -2.78346 1.82061
rclavicle 8.82107e-016 -6.04305e-014
rhumerus -40.9015 14.4027 -88.6558
rradius 114.419
rwrist -12.7754
rhand 0.02993 -53.0142
rfingers 7.12502
rthumb 25.619 -81.3108
lclavicle 8.82107e-016 -6.04305e-014
lhumerus -45.2405 -2.87633 93.3647
lradius 111.412
lwrist 48.3835
lhand -31.9816 4.74524
lfingers 7.12502
lthumb -5.23095 34.6607
rfemur -2.54994 25.6476 25.462
rtibia 2.03677
rfoot -13.5851 -26.9353
rtoes 1.18468
lfemur 7.24327 -46.6291 -14.0068
ltibia -5.21363
lfoot -21.8404 51.8505
ltoes 8.10455
510
root 0.803014 17.4658 9.54668 9.28642 0.845305 -8.8429
lowerback -4.53143 1.34347 6.20913
upperback -8.23284 1.88851 2.65811
thorax -5.96325 0.669326 -0.701306
lowerneck -10.4563 -4.05413 -2.49204
upperneck 28.494 -7.17198 6.36179
head 11.284 -2.783 1.83425
rclavicle 9.52924e-015 -3.89618e-014
rhumerus -41.0287 14.3812 -88.6816
rradius 114.529
rwrist -12.6791
rhand 0.052081 -52.9236
rfingers 7.12502
rthumb 25.6403 -81.2171
lclavicle 9.52924e-015 -3.89618e-014
lhumerus -45.2584 -2.89595 93.33
lradius 111.381
lwrist 48.3877
lhand -32.0741 4.7362
lfingers 7.12502
lthumb -5.32032 34.6494
rfemur -2.54755 25.7537 25.4906
rtibia 2.04461
rfoot -13.6061 -26.9995
rtoes 1.3034
lfemur 7.2459 -46.6162 -13.9868
ltibia -5.21631
lfoot -21.8203 51.8734
ltoes 8.07913
511
root 0.803407 17.4664 9.54585 9.29337 0.832665 -8.84314
lowerback -4.52219 1.32808 6.20408
upperback -8.24648 1.87005 2.66898
thorax -5.98481 0.66002 -0.687301
lowerneck -10.4394 -4.08293 -2.63678
upperneck 28.3584 -7.20807 6.4865
head 11.2415 -2.80395 1.89884
rclavicle -1.16538e-014 -3.73218e-014
rhumerus -41.0288 14.4352 -88.6368
rradius 114.559
rwrist -12.5719
rhand 0.0155732 -52.7364
rfingers 7.12502
rthumb 25.6053 -81.035
lclavicle -1.16538e-014 -3.73218e-014
lhumerus -45.2615 -2.8808 93.3092
lradius 111.351
lwrist 48.3637
lhand -32.0579 4.74359
lfingers 7.12502
lthumb -5.30462 34.6572
rfemur -2.56333 25.7627 25.4842
rtibia 2.05489
rfoot -13.6319 -26.9976
rtoes 1.35495
lfemur 7.22978 -46.6031 -13.9772
ltibia -5.21678
lfoot -21.6369 51.9131
ltoes 7.81351
